<?xml version="1.0" encoding="UTF-8" standalone="no"?>
<!-- Created with Inkscape (http://www.inkscape.org/) -->

<svg
   xmlns:dc="http://purl.org/dc/elements/1.1/"
   xmlns:cc="http://creativecommons.org/ns#"
   xmlns:rdf="http://www.w3.org/1999/02/22-rdf-syntax-ns#"
   xmlns:svg="http://www.w3.org/2000/svg"
   xmlns="http://www.w3.org/2000/svg"
   xmlns:sodipodi="http://sodipodi.sourceforge.net/DTD/sodipodi-0.dtd"
   xmlns:inkscape="http://www.inkscape.org/namespaces/inkscape"
   width="210mm"
   height="297mm"
   id="svg2"
   version="1.1"
   inkscape:version="0.48.1 "
   sodipodi:docname="flPlug.svg">
  <defs
     id="defs4">
    <filter
       inkscape:collect="always"
       id="filter4011">
      <feGaussianBlur
         inkscape:collect="always"
         stdDeviation="1.894036"
         id="feGaussianBlur4013" />
    </filter>
  </defs>
  <sodipodi:namedview
     id="base"
     pagecolor="#ffffff"
     bordercolor="#666666"
     borderopacity="1.0"
     inkscape:pageopacity="0.0"
     inkscape:pageshadow="2"
     inkscape:zoom="0.98994949"
     inkscape:cx="429.84481"
     inkscape:cy="839.56751"
     inkscape:document-units="px"
     inkscape:current-layer="layer1"
     showgrid="false"
     inkscape:window-width="1024"
     inkscape:window-height="712"
     inkscape:window-x="-4"
     inkscape:window-y="-4"
     inkscape:window-maximized="1" />
  <metadata
     id="metadata7">
    <rdf:RDF>
      <cc:Work
         rdf:about="">
        <dc:format>image/svg+xml</dc:format>
        <dc:type
           rdf:resource="http://purl.org/dc/dcmitype/StillImage" />
        <dc:title></dc:title>
      </cc:Work>
    </rdf:RDF>
  </metadata>
  <g
     inkscape:label="Capa 1"
     inkscape:groupmode="layer"
     id="layer1">
    <rect
       style="fill:#000080;fill-opacity:1;stroke:#000029;stroke-width:0.38400000000000001;stroke-miterlimit:4;stroke-opacity:1;stroke-dasharray:none;stroke-linejoin:bevel;stroke-linecap:round;filter:url(#filter4011)"
       id="rect3796"
       width="492.95444"
       height="264.65997"
       x="192.93913"
       y="92.717262"
       inkscape:export-xdpi="90"
       inkscape:export-ydpi="90" />
    <g
       id="g3798"
       transform="matrix(0.69386306,0,0,0.5859628,138.0261,93.021127)">
      <path
         transform="matrix(1,0,0,0.88505192,9.0913733,24.34828)"
         sodipodi:type="arc"
         style="fill:#00ffff;fill-opacity:1;fill-rule:evenodd;stroke:#000043;stroke-width:1px;stroke-linecap:butt;stroke-linejoin:miter;stroke-opacity:1"
         id="path3794"
         sodipodi:cx="425.27423"
         sodipodi:cy="227.06755"
         sodipodi:rx="169.70563"
         sodipodi:ry="98.994949"
         d="m 594.97986,227.06755 c 0,54.6734 -75.9798,98.99495 -169.70563,98.99495 -93.72583,0 -169.70563,-44.32155 -169.70563,-98.99495 0,-54.6734 75.9798,-98.99495 169.70563,-98.99495 93.72583,0 169.70563,44.32155 169.70563,98.99495 z" />
      <path
         transform="matrix(0.39024429,0,0,0.37789862,195.8093,124.07199)"
         d="m 469.72093,253.83659 c 0,22.59462 -18.31656,40.91118 -40.91118,40.91118 -22.59462,0 -40.91118,-18.31656 -40.91118,-40.91118 0,-22.59462 18.31656,-40.91117 40.91118,-40.91117 22.59462,0 40.91118,18.31655 40.91118,40.91117 z"
         sodipodi:ry="40.911179"
         sodipodi:rx="40.911179"
         sodipodi:cy="253.83659"
         sodipodi:cx="428.80975"
         id="path3774"
         style="fill:#800000;fill-opacity:1;stroke:#000029;stroke-width:0.99994314;stroke-miterlimit:4;stroke-opacity:1;stroke-dasharray:none"
         sodipodi:type="arc" />
      <path
         transform="matrix(0.39024429,0,0,0.37789862,343.79664,124.07199)"
         d="m 469.72093,253.83659 c 0,22.59462 -18.31656,40.91118 -40.91118,40.91118 -22.59462,0 -40.91118,-18.31656 -40.91118,-40.91118 0,-22.59462 18.31656,-40.91117 40.91118,-40.91117 22.59462,0 40.91118,18.31655 40.91118,40.91117 z"
         sodipodi:ry="40.911179"
         sodipodi:rx="40.911179"
         sodipodi:cy="253.83659"
         sodipodi:cx="428.80975"
         id="path3774-1"
         style="fill:#800000;fill-opacity:1;stroke:#000029;stroke-width:0.99994314;stroke-miterlimit:4;stroke-opacity:1;stroke-dasharray:none"
         sodipodi:type="arc" />
    </g>
  </g>
</svg>
